<svg preserveAspectRatio="xMidYMid meet" overflow="visible" style="display: block;" viewBox="0 0 14.0973 16" fill="none" xmlns="http://www.w3.org/2000/svg">
<path id="Vector" d="M0 2.34667C0 5.31604 1.37225 7.11497 4.12829 8.0663C4.62415 8.72361 5.21225 9.24831 5.78306 9.59424V12.7769H4.53189C3.56901 12.7769 3.05586 13.3304 3.05586 14.2472V15.5215C3.05586 15.8097 3.28072 16 3.54595 16H10.5456C10.8166 16 11.0415 15.8097 11.0415 15.5215V14.2472C11.0415 13.3304 10.5283 12.7769 9.56543 12.7769H8.31422V9.59424C8.88503 9.24831 9.47314 8.72361 9.96903 8.0663C12.725 7.11497 14.0973 5.31604 14.0973 2.34667C14.0973 1.63171 13.6418 1.19351 12.8922 1.19351H11.5373C11.4451 0.44973 10.9377 0 10.0901 0H4.00721C3.17117 0 2.65225 0.438199 2.56 1.19351H1.20505C0.455495 1.19351 0 1.63171 0 2.34667ZM0.916755 2.43315C0.916755 2.27171 1.03207 2.15639 1.19351 2.15639H2.53117V3.71892C2.53117 4.84901 2.82523 5.89262 3.28072 6.79207C1.73549 5.97334 0.916755 4.55495 0.916755 2.43315ZM10.8166 6.79207C11.2721 5.89262 11.5661 4.84901 11.5661 3.71892V2.15639H12.898C13.0652 2.15639 13.1805 2.27171 13.1805 2.43315C13.1805 4.55495 12.3618 5.97334 10.8166 6.79207Z" fill="var(--fill-0, black)" fill-opacity="0.4"/>
</svg>
