<svg preserveAspectRatio="xMidYMid meet" overflow="visible" style="display: block;" viewBox="0 0 16 6.8505" fill="none" xmlns="http://www.w3.org/2000/svg">
<path id="Vector" d="M0.579 0C0.5765 0 0.574 0 0.571 0C0.2555 0 0 0.2555 0 0.571C0 0.8865 0.2555 1.142 0.571 1.142C0.574 1.142 0.5765 1.142 0.5795 1.142H15.421C15.4235 1.142 15.426 1.142 15.429 1.142C15.7445 1.142 16 0.8865 16 0.571C16 0.2555 15.7445 0 15.429 0C15.426 0 15.4235 0 15.4205 0H0.579ZM0.579 5.7085C0.5765 5.7085 0.574 5.7085 0.571 5.7085C0.2555 5.7085 0 5.964 0 6.2795C0 6.595 0.2555 6.8505 0.571 6.8505C0.574 6.8505 0.5765 6.8505 0.5795 6.8505H15.421C15.4235 6.8505 15.426 6.8505 15.429 6.8505C15.7445 6.8505 16 6.595 16 6.2795C16 5.964 15.7445 5.7085 15.429 5.7085C15.426 5.7085 15.4235 5.7085 15.4205 5.7085H0.579Z" fill="var(--fill-0, black)"/>
</svg>
